<svg xmlns="http://www.w3.org/2000/svg" xmlns:xlink="http://www.w3.org/1999/xlink" width="840" height="841.56"><rect width="840" height="841.56" rx="5" ry="5" class="a"/><svg y="0%" x="0%"><circle cx="20" cy="20" r="6" fill="#ff5f58"/><circle cx="40" cy="20" r="6" fill="#ffbd2e"/><circle cx="60" cy="20" r="6" fill="#18c132"/></svg><svg height="781.56" viewBox="0 0 80 78.156" width="800" x="15" xmlns="http://www.w3.org/2000/svg" xmlns:xlink="http://www.w3.org/1999/xlink" y="50"><style>.a{fill:#282d35}.g{fill:#b9c0cb}.g,.h,.i{white-space:pre}.h{fill:#b9c0cb;text-decoration:underline}.i{fill:#6f7783}</style><g font-family="Monaco,Consolas,Menlo,'Bitstream Vera Sans Mono','Powerline Symbols',monospace" font-size="1.67"><defs><symbol id="a"><path fill="transparent" d="M0 0h80v37H0z"/></symbol></defs><path class="a" d="M0 0h80v78.156H0z"/><svg width="80"><svg><use xlink:href="#a"/><text y="1.67" class="g">$</text><text x="2.004" y="1.67" class="g">sql</text><text x="6.012" y="1.67" class="g">alias</text><text x="12.024" y="1.67" class="g">add</text><text x="16.032" y="1.67" class="g">test-1</text><text x="23.046" y="1.67" class="g">mysql://root:Secret123@127.0.0.1:23306/test1_db</text><text y="3.841" class="g">Created</text><text x="8.016" y="3.841" class="g">alias</text><text x="14.028" y="3.841" class="g">&apos;test-1&apos;</text><text y="8.183" class="g">$</text><text x="2.004" y="8.183" class="g">sql</text><text x="6.012" y="8.183" class="g">alias</text><text x="12.024" y="8.183" class="g">add</text><text x="16.032" y="8.183" class="g">test-2</text><text x="23.046" y="8.183" class="g">mysql://root:Secret123@127.0.0.1:23306/test2_db</text><text y="10.354" class="g">Created</text><text x="8.016" y="10.354" class="g">alias</text><text x="14.028" y="10.354" class="g">&apos;test-2&apos;</text><text y="14.696" class="g">$</text><text x="2.004" y="14.696" class="g">sql</text><text x="6.012" y="14.696" class="g">alias</text><text x="12.024" y="14.696" class="g">ls</text><text y="16.867" class="h">alias</text><text x="13.026" y="16.867" class="h">conn</text><text y="19.038" class="g">local-sqlite</text><text x="13.026" y="19.038" class="g">sqlite:///path/to/file1.db</text><text y="21.209" class="i">local-pg</text><text x="13.026" y="21.209" class="i">postgres://127.0.0.1:5432/mydb</text><text y="23.38" class="g">project-dev</text><text x="13.026" y="23.38" class="g">mysql://12.12.12.12/dev_db</text><text y="25.551" class="i">project-prod</text><text x="13.026" y="25.551" class="i">mysql://34.34.34.34/prod_db</text><text y="27.722" class="g">test-1</text><text x="13.026" y="27.722" class="g">mysql://root:Secret123@127.0.0.1:23306/test1_db</text><text y="29.893" class="i">test-2</text><text x="13.026" y="29.893" class="i">mysql://root:Secret123@127.0.0.1:23306/test2_db</text><text y="34.235" class="g">$</text><text x="2.004" y="34.235" class="g">sql</text><text x="6.012" y="34.235" class="g">ls</text><text x="9.018" y="34.235" class="g">test-1</text><text y="36.406" class="h">table</text><text x="8.016" y="36.406" class="h">rows</text><text x="13.026" y="36.406" class="h">bytes</text><text y="38.577" class="g">table_1</text><text x="8.016" y="38.577" class="g">2</text><text x="13.026" y="38.577" class="g">32.8</text><text x="18.036" y="38.577" class="g">kB</text><text y="40.748" class="i">table_2</text><text x="8.016" y="40.748" class="i">2</text><text x="13.026" y="40.748" class="i">32.8</text><text x="18.036" y="40.748" class="i">kB</text><text y="42.919" class="g">table_3</text><text x="8.016" y="42.919" class="g">0</text><text x="13.026" y="42.919" class="g">16.4</text><text x="18.036" y="42.919" class="g">kB</text><text y="47.261" class="i">(81.9</text><text x="6.012" y="47.261" class="i">kB</text><text x="9.018" y="47.261" class="i">in</text><text x="12.024" y="47.261" class="i">3</text><text x="14.028" y="47.261" class="i">tables)</text><text y="51.603" class="g">$</text><text x="2.004" y="51.603" class="g">sql</text><text x="6.012" y="51.603" class="g">show</text><text x="11.022" y="51.603" class="g">test-1/table_1</text><text y="53.774" class="h">column</text><text x="11.022" y="53.774" class="h">type</text><text x="23.046" y="53.774" class="h">nullable</text><text x="32.064" y="53.774" class="h">default</text><text y="55.945" class="g">id</text><text x="11.022" y="55.945" class="g">int</text><text x="23.046" y="55.945" class="g">false</text><text y="58.116" class="i">field_1</text><text x="11.022" y="58.116" class="i">int</text><text x="23.046" y="58.116" class="i">true</text><text y="60.287" class="g">field_2</text><text x="11.022" y="60.287" class="g">text(65535)</text><text x="23.046" y="60.287" class="g">true</text><text y="62.458" class="i">created_at</text><text x="11.022" y="62.458" class="i">datetime</text><text x="23.046" y="62.458" class="i">true</text><text y="64.629" class="g">updated_at</text><text x="11.022" y="64.629" class="g">datetime</text><text x="23.046" y="64.629" class="g">true</text><text y="68.971" class="h">index</text><text x="22.044" y="68.971" class="h">algorithm</text><text x="32.064" y="68.971" class="h">unique</text><text x="39.078" y="68.971" class="h">columns</text><text y="71.142" class="g">PRIMARY</text><text x="22.044" y="71.142" class="g">BTREE</text><text x="32.064" y="71.142" class="g">true</text><text x="39.078" y="71.142" class="g">id</text><text y="73.313" class="i">table_1_field_1_index</text><text x="22.044" y="73.313" class="i">BTREE</text><text x="32.064" y="73.313" class="i">false</text><text x="39.078" y="73.313" class="i">field_1</text></svg></svg></g></svg></svg>