<svg xmlns="http://www.w3.org/2000/svg" xmlns:xlink="http://www.w3.org/1999/xlink" width="840" height="646.17"><rect width="840" height="646.17" rx="5" ry="5" class="a"/><svg y="0%" x="0%"><circle cx="20" cy="20" r="6" fill="#ff5f58"/><circle cx="40" cy="20" r="6" fill="#ffbd2e"/><circle cx="60" cy="20" r="6" fill="#18c132"/></svg><svg height="586.17" viewBox="0 0 80 58.617" width="800" x="15" xmlns="http://www.w3.org/2000/svg" xmlns:xlink="http://www.w3.org/1999/xlink" y="50"><style>.a{fill:#fff}.g{fill:#000}.g,.h,.i{white-space:pre}.h{fill:#000;text-decoration:underline}.i{fill:#818383}</style><g font-family="Monaco,Consolas,Menlo,'Bitstream Vera Sans Mono','Powerline Symbols',monospace" font-size="1.67"><defs><symbol id="a"><path fill="transparent" d="M0 0h80v28H0z"/></symbol></defs><path class="a" d="M0 0h80v58.617H0z"/><svg width="80"><svg><use xlink:href="#a"/><text y="1.67" class="g">$</text><text x="2.004" y="1.67" class="g">sql</text><text x="6.012" y="1.67" class="g">alias</text><text x="12.024" y="1.67" class="g">add</text><text x="16.032" y="1.67" class="g">mydb</text><text x="21.042" y="1.67" class="g">sqlite://file1.db</text><text y="3.841" class="g">Created</text><text x="8.016" y="3.841" class="g">alias</text><text x="14.028" y="3.841" class="g">&apos;mydb&apos;</text><text y="8.183" class="g">$</text><text x="2.004" y="8.183" class="g">sql</text><text x="6.012" y="8.183" class="g">alias</text><text x="12.024" y="8.183" class="g">ls</text><text y="10.354" class="h">alias</text><text x="13.026" y="10.354" class="h">conn</text><text y="12.525" class="g">local-pg</text><text x="13.026" y="12.525" class="g">postgres://127.0.0.1:5432/mydb</text><text y="14.696" class="i">local-my</text><text x="13.026" y="14.696" class="i">mysql://127.0.0.1:3306/mydb</text><text y="16.867" class="g">project-dev</text><text x="13.026" y="16.867" class="g">mysql://12.12.12.12/dev_db</text><text y="19.038" class="i">project-prod</text><text x="13.026" y="19.038" class="i">mysql://34.34.34.34/prod_db</text><text y="21.209" class="g">mydb</text><text x="13.026" y="21.209" class="g">sqlite://file1.db</text><text y="25.551" class="g">$</text><text x="2.004" y="25.551" class="g">sql</text><text x="6.012" y="25.551" class="g">ls</text><text x="9.018" y="25.551" class="g">mydb</text><text y="27.722" class="h">table</text><text x="8.016" y="27.722" class="h">rows</text><text x="13.026" y="27.722" class="h">bytes</text><text y="29.893" class="g">table_1</text><text x="8.016" y="29.893" class="g">2</text><text x="13.026" y="29.893" class="g">4.1</text><text x="17.034" y="29.893" class="g">kB</text><text y="32.064" class="i">table_2</text><text x="8.016" y="32.064" class="i">2</text><text x="13.026" y="32.064" class="i">4.1</text><text x="17.034" y="32.064" class="i">kB</text><text y="34.235" class="g">table_3</text><text x="8.016" y="34.235" class="g">0</text><text x="13.026" y="34.235" class="g">4.1</text><text x="17.034" y="34.235" class="g">kB</text><text y="38.577" class="i">(12.3</text><text x="6.012" y="38.577" class="i">kB</text><text x="9.018" y="38.577" class="i">in</text><text x="12.024" y="38.577" class="i">3</text><text x="14.028" y="38.577" class="i">tables)</text><text y="42.919" class="g">$</text><text x="2.004" y="42.919" class="g">sql</text><text x="6.012" y="42.919" class="g">show</text><text x="11.022" y="42.919" class="g">mydb/table_1</text><text y="45.09" class="h">column</text><text x="11.022" y="45.09" class="h">type</text><text x="20.04" y="45.09" class="h">nullable</text><text y="47.261" class="g">id</text><text x="11.022" y="47.261" class="g">integer</text><text x="20.04" y="47.261" class="g">false</text><text y="49.432" class="i">field_1</text><text x="11.022" y="49.432" class="i">integer</text><text x="20.04" y="49.432" class="i">true</text><text y="51.603" class="g">field_2</text><text x="11.022" y="51.603" class="g">text</text><text x="20.04" y="51.603" class="g">true</text><text y="53.774" class="i">created_at</text><text x="11.022" y="53.774" class="i">datetime</text><text x="20.04" y="53.774" class="i">true</text><text y="55.945" class="g">updated_at</text><text x="11.022" y="55.945" class="g">datetime</text><text x="20.04" y="55.945" class="g">true</text></svg></svg></g></svg></svg>