<svg xmlns="http://www.w3.org/2000/svg" xmlns:xlink="http://www.w3.org/1999/xlink" width="840" height="689.59"><rect width="840" height="689.59" rx="5" ry="5" class="a"/><svg y="0%" x="0%"><circle cx="20" cy="20" r="6" fill="#ff5f58"/><circle cx="40" cy="20" r="6" fill="#ffbd2e"/><circle cx="60" cy="20" r="6" fill="#18c132"/></svg><svg height="629.59" viewBox="0 0 80 62.959" width="800" x="15" xmlns="http://www.w3.org/2000/svg" xmlns:xlink="http://www.w3.org/1999/xlink" y="50"><style>.a{fill:#282d35}.g,.h{fill:#b9c0cb;white-space:pre}.h{text-decoration:underline}.i,.j,.k,.l{fill:#e88388;white-space:pre}.j,.k,.l{fill:#a8cc8c}.k,.l{fill:#dbab79}.l{fill:#6f7783}</style><g font-family="Monaco,Consolas,Menlo,'Bitstream Vera Sans Mono','Powerline Symbols',monospace" font-size="1.67"><defs><symbol id="a"><path fill="transparent" d="M0 0h80v30H0z"/></symbol></defs><path class="a" d="M0 0h80v62.959H0z"/><svg width="80"><svg><use xlink:href="#a"/><text y="1.67" class="g">$</text><text x="2.004" y="1.67" class="g">sql</text><text x="6.012" y="1.67" class="g">diff</text><text x="11.022" y="1.67" class="g">test-1</text><text x="18.036" y="1.67" class="g">test-2</text><text y="3.841" class="h">table</text><text x="8.016" y="3.841" class="h">rows</text><text x="14.028" y="3.841" class="h">bytes</text><text x="22.044" y="3.841" class="h">columns</text><text x="57.114" y="3.841" class="h">indexes</text><text y="6.012" class="i">table_1</text><text x="8.016" y="6.012" class="i">2</text><text x="14.028" y="6.012" class="i">32.8</text><text x="19.038" y="6.012" class="i">kB</text><text x="22.044" y="6.012" class="i">5x</text><text x="25.05" y="6.012" class="i">deleted</text><text x="57.114" y="6.012" class="i">2x</text><text x="60.12" y="6.012" class="i">deleted</text><text y="8.183" class="g">table_2</text><text x="8.016" y="8.183" class="i">2</text><text x="10.02" y="8.183" class="g">→</text><text x="12.024" y="8.183" class="j">1</text><text x="14.028" y="8.183" class="g">32.8</text><text x="19.038" y="8.183" class="g">kB</text><text x="22.044" y="8.183" class="g">5x</text><text x="25.05" y="8.183" class="g">similar</text><text x="57.114" y="8.183" class="g">2x</text><text x="60.12" y="8.183" class="g">similar</text><text y="10.354" class="g">table_3</text><text x="8.016" y="10.354" class="g">0</text><text x="14.028" y="10.354" class="g">16.4</text><text x="19.038" y="10.354" class="g">kB</text><text x="22.044" y="10.354" class="i">1x</text><text x="25.05" y="10.354" class="i">deleted</text><text x="32.064" y="10.354" class="g">,</text><text x="34.068" y="10.354" class="j">2x</text><text x="37.074" y="10.354" class="j">created</text><text x="44.088" y="10.354" class="g">,</text><text x="46.092" y="10.354" class="g">3x</text><text x="49.098" y="10.354" class="g">similar</text><text x="57.114" y="10.354" class="i">1x</text><text x="60.12" y="10.354" class="i">deleted</text><text y="12.525" class="j">table_4</text><text x="8.016" y="12.525" class="j">0</text><text x="14.028" y="12.525" class="j">16.4</text><text x="19.038" y="12.525" class="j">kB</text><text x="22.044" y="12.525" class="j">1x</text><text x="25.05" y="12.525" class="j">created</text><text x="57.114" y="12.525" class="j">none</text><text y="16.867" class="g">Tables:</text><text x="8.016" y="16.867" class="i">1x</text><text x="11.022" y="16.867" class="i">deleted</text><text x="18.036" y="16.867" class="g">,</text><text x="20.04" y="16.867" class="j">1x</text><text x="23.046" y="16.867" class="j">created</text><text x="30.06" y="16.867" class="g">,</text><text x="32.064" y="16.867" class="k">2x</text><text x="35.07" y="16.867" class="k">changed</text><text y="21.209" class="g">$</text><text x="2.004" y="21.209" class="g">sql</text><text x="6.012" y="21.209" class="g">diff</text><text x="11.022" y="21.209" class="g">test-1/table_1</text><text x="26.052" y="21.209" class="g">test-2/table_2</text><text y="23.38" class="h">column</text><text x="8.016" y="23.38" class="h">type</text><text x="22.044" y="23.38" class="h">nullable</text><text x="35.07" y="23.38" class="h">default</text><text y="25.551" class="g">field_1</text><text x="8.016" y="25.551" class="i">int</text><text x="12.024" y="25.551" class="g">→</text><text x="14.028" y="25.551" class="j">decimal</text><text x="22.044" y="25.551" class="i">true</text><text x="27.054" y="25.551" class="g">→</text><text x="29.058" y="25.551" class="j">false</text><text y="29.893" class="h">index</text><text x="23.046" y="29.893" class="h">algorithm</text><text x="33.066" y="29.893" class="h">unique</text><text x="40.08" y="29.893" class="h">columns</text><text y="32.064" class="i">table_1_field_1_index</text><text x="23.046" y="32.064" class="i">BTREE</text><text x="33.066" y="32.064" class="i">false</text><text x="40.08" y="32.064" class="i">field_1</text><text y="34.235" class="j">table_2_field_1_unique</text><text x="23.046" y="34.235" class="j">BTREE</text><text x="33.066" y="34.235" class="j">true</text><text x="40.08" y="34.235" class="j">field_1</text><text y="38.577" class="g">Columns:</text><text x="9.018" y="38.577" class="k">1x</text><text x="12.024" y="38.577" class="k">changed</text><text x="19.038" y="38.577" class="g">,</text><text x="21.042" y="38.577" class="g">4x</text><text x="24.048" y="38.577" class="g">similar</text><text x="32.064" y="38.577" class="g">(hidden)</text><text y="40.748" class="g">Indexes:</text><text x="9.018" y="40.748" class="i">1x</text><text x="12.024" y="40.748" class="i">deleted</text><text x="19.038" y="40.748" class="g">,</text><text x="21.042" y="40.748" class="j">1x</text><text x="24.048" y="40.748" class="j">created</text><text x="31.062" y="40.748" class="g">,</text><text x="33.066" y="40.748" class="g">1x</text><text x="36.072" y="40.748" class="g">similar</text><text x="44.088" y="40.748" class="g">(hidden)</text><text y="42.919" class="l">Re-run</text><text x="7.014" y="42.919" class="l">with</text><text x="12.024" y="42.919" class="l">--all</text><text x="18.036" y="42.919" class="l">to</text><text x="21.042" y="42.919" class="l">show</text><text x="26.052" y="42.919" class="l">hidden</text><text x="33.066" y="42.919" class="l">rows</text><text y="47.261" class="g">$</text><text x="2.004" y="47.261" class="g">sql</text><text x="6.012" y="47.261" class="g">diff</text><text x="11.022" y="47.261" class="g">test-1/table_1</text><text x="26.052" y="47.261" class="g">test-2/table_2</text><text x="41.082" y="47.261" class="g">--data</text><text x="48.096" y="47.261" class="g">--limit=20</text><text y="49.432" class="g">Diff</text><text x="5.01" y="49.432" class="g">of</text><text x="8.016" y="49.432" class="g">tables</text><text x="15.03" y="49.432" class="g">content</text><text x="23.046" y="49.432" class="g">(rows</text><text x="29.058" y="49.432" class="g">1</text><text x="31.062" y="49.432" class="g">to</text><text x="34.068" y="49.432" class="g">20):</text><text y="53.774" class="h">id</text><text x="3.006" y="53.774" class="h">field_1</text><text x="14.028" y="53.774" class="h">updated_at</text><text y="55.945" class="g">1</text><text x="3.006" y="55.945" class="i">12</text><text x="6.012" y="55.945" class="g">→</text><text x="8.016" y="55.945" class="j">12.30</text><text x="14.028" y="55.945" class="i">[null]</text><text x="21.042" y="55.945" class="g">→</text><text x="23.046" y="55.945" class="j">2020-07-24T18:34:00.000Z</text><text y="58.116" class="i">2</text><text x="3.006" y="58.116" class="i">30</text><text x="14.028" y="58.116" class="i">2020-07-24T18:34:00.000Z</text><text y="60.287" class="l">Re-run</text><text x="7.014" y="60.287" class="l">with</text><text x="12.024" y="60.287" class="l">--all</text><text x="18.036" y="60.287" class="l">to</text><text x="21.042" y="60.287" class="l">show</text><text x="26.052" y="60.287" class="l">rows</text><text x="31.062" y="60.287" class="l">without</text><text x="39.078" y="60.287" class="l">changes</text></svg></svg></g></svg></svg>