<svg xmlns="http://www.w3.org/2000/svg" xmlns:xlink="http://www.w3.org/1999/xlink" width="840" height="581.04"><rect width="840" height="581.04" rx="5" ry="5" class="a"/><svg y="0%" x="0%"><circle cx="20" cy="20" r="6" fill="#ff5f58"/><circle cx="40" cy="20" r="6" fill="#ffbd2e"/><circle cx="60" cy="20" r="6" fill="#18c132"/></svg><svg height="521.04" viewBox="0 0 80 52.104" width="800" x="15" xmlns="http://www.w3.org/2000/svg" xmlns:xlink="http://www.w3.org/1999/xlink" y="50"><style>.a{fill:#282d35}.g{fill:#b9c0cb}.g,.h,.i,.j,.k{white-space:pre}.h{fill:#b9c0cb;text-decoration:underline}.i,.j,.k{fill:#e88388}.j,.k{fill:#a8cc8c}.k{fill:#dbab79}</style><g font-family="Monaco,Consolas,Menlo,'Bitstream Vera Sans Mono','Powerline Symbols',monospace" font-size="1.67"><defs><symbol id="a"><path fill="transparent" d="M0 0h80v24H0z"/></symbol></defs><path class="a" d="M0 0h80v52.104H0z"/><svg width="80"><svg><use xlink:href="#a"/><text y="1.67" class="g">$</text><text x="2.004" y="1.67" class="g">sql</text><text x="6.012" y="1.67" class="g">diff</text><text x="11.022" y="1.67" class="g">sqlite://file1.db</text><text x="29.058" y="1.67" class="g">sqlite://file2.db</text><text y="3.841" class="h">table</text><text x="8.016" y="3.841" class="h">rows</text><text x="14.028" y="3.841" class="h">bytes</text><text x="21.042" y="3.841" class="h">columns</text><text x="56.112" y="3.841" class="h">indexes</text><text y="6.012" class="i">table_1</text><text x="8.016" y="6.012" class="i">2</text><text x="14.028" y="6.012" class="i">4.1</text><text x="18.036" y="6.012" class="i">kB</text><text x="21.042" y="6.012" class="i">5x</text><text x="24.048" y="6.012" class="i">deleted</text><text x="56.112" y="6.012" class="g">none</text><text y="8.183" class="g">table_2</text><text x="8.016" y="8.183" class="i">2</text><text x="10.02" y="8.183" class="g">→</text><text x="12.024" y="8.183" class="j">1</text><text x="14.028" y="8.183" class="g">4.1</text><text x="18.036" y="8.183" class="g">kB</text><text x="21.042" y="8.183" class="g">5x</text><text x="24.048" y="8.183" class="g">similar</text><text x="56.112" y="8.183" class="g">none</text><text y="10.354" class="g">table_3</text><text x="8.016" y="10.354" class="g">0</text><text x="14.028" y="10.354" class="g">4.1</text><text x="18.036" y="10.354" class="g">kB</text><text x="21.042" y="10.354" class="i">1x</text><text x="24.048" y="10.354" class="i">deleted</text><text x="31.062" y="10.354" class="g">,</text><text x="33.066" y="10.354" class="j">2x</text><text x="36.072" y="10.354" class="j">created</text><text x="43.086" y="10.354" class="g">,</text><text x="45.09" y="10.354" class="g">3x</text><text x="48.096" y="10.354" class="g">similar</text><text x="56.112" y="10.354" class="g">none</text><text y="12.525" class="j">table_4</text><text x="8.016" y="12.525" class="j">0</text><text x="14.028" y="12.525" class="j">4.1</text><text x="18.036" y="12.525" class="j">kB</text><text x="21.042" y="12.525" class="j">1x</text><text x="24.048" y="12.525" class="j">created</text><text x="56.112" y="12.525" class="g">none</text><text y="16.867" class="i">1x</text><text x="3.006" y="16.867" class="i">deleted</text><text x="10.02" y="16.867" class="g">,</text><text x="12.024" y="16.867" class="j">1x</text><text x="15.03" y="16.867" class="j">created</text><text x="22.044" y="16.867" class="g">,</text><text x="24.048" y="16.867" class="k">2x</text><text x="27.054" y="16.867" class="k">changed</text><text y="21.209" class="g">$</text><text x="2.004" y="21.209" class="g">sql</text><text x="6.012" y="21.209" class="g">diff</text><text x="11.022" y="21.209" class="g">sqlite://file1.db/table_1</text><text x="37.074" y="21.209" class="g">sqlite://file2.db/table_2</text><text y="23.38" class="h">column</text><text x="8.016" y="23.38" class="h">type</text><text y="25.551" class="g">field_1</text><text x="8.016" y="25.551" class="i">integer</text><text x="16.032" y="25.551" class="i">nullable</text><text x="25.05" y="25.551" class="g">→</text><text x="27.054" y="25.551" class="j">float</text><text y="29.893" class="g">Columns:</text><text x="9.018" y="29.893" class="k">1x</text><text x="12.024" y="29.893" class="k">changed</text><text x="19.038" y="29.893" class="g">,</text><text x="21.042" y="29.893" class="g">4x</text><text x="24.048" y="29.893" class="g">similar</text><text x="32.064" y="29.893" class="g">(hidden)</text><text y="32.064" class="g">Indexes:</text><text x="9.018" y="32.064" class="g">none</text><text y="36.406" class="g">$</text><text x="2.004" y="36.406" class="g">sql</text><text x="6.012" y="36.406" class="g">diff</text><text x="11.022" y="36.406" class="g">sqlite://file1.db/table_1</text><text x="37.074" y="36.406" class="g">sqlite://file2.db/table_2</text><text x="63.126" y="36.406" class="g">--data</text><text x="70.14" y="36.406" class="g">--rows=20</text><text y="38.577" class="g">Diff</text><text x="5.01" y="38.577" class="g">of</text><text x="8.016" y="38.577" class="g">tables</text><text x="15.03" y="38.577" class="g">content</text><text x="23.046" y="38.577" class="g">(first</text><text x="30.06" y="38.577" class="g">20</text><text x="33.066" y="38.577" class="g">rows):</text><text y="42.919" class="h">id</text><text x="3.006" y="42.919" class="h">field_1</text><text x="13.026" y="42.919" class="h">updated_at</text><text y="45.09" class="g">1</text><text x="3.006" y="45.09" class="i">12</text><text x="6.012" y="45.09" class="g">→</text><text x="8.016" y="45.09" class="j">12.3</text><text x="13.026" y="45.09" class="i">[null]</text><text x="20.04" y="45.09" class="g">→</text><text x="22.044" y="45.09" class="j">2020-07-24</text><text x="33.066" y="45.09" class="j">18:34:00</text><text y="47.261" class="i">2</text><text x="3.006" y="47.261" class="i">30</text><text x="13.026" y="47.261" class="i">2020-07-24</text><text x="24.048" y="47.261" class="i">18:34:00</text></svg></svg></g></svg></svg>