<svg xmlns="http://www.w3.org/2000/svg" xmlns:xlink="http://www.w3.org/1999/xlink" width="840" height="733.01"><rect width="840" height="733.01" rx="5" ry="5" class="a"/><svg y="0%" x="0%"><circle cx="20" cy="20" r="6" fill="#ff5f58"/><circle cx="40" cy="20" r="6" fill="#ffbd2e"/><circle cx="60" cy="20" r="6" fill="#18c132"/></svg><svg height="673.01" viewBox="0 0 80 67.301" width="800" x="15" xmlns="http://www.w3.org/2000/svg" xmlns:xlink="http://www.w3.org/1999/xlink" y="50"><style>.a{fill:#282d35}.g,.h{fill:#b9c0cb;white-space:pre}.h{text-decoration:underline}.i,.j,.k,.l{fill:#e88388;white-space:pre}.j,.k,.l{fill:#a8cc8c}.k,.l{fill:#dbab79}.l{fill:#6f7783}</style><g font-family="Monaco,Consolas,Menlo,'Bitstream Vera Sans Mono','Powerline Symbols',monospace" font-size="1.67"><defs><symbol id="a"><path fill="transparent" d="M0 0h80v32H0z"/></symbol></defs><path class="a" d="M0 0h80v67.301H0z"/><svg width="80"><svg><use xlink:href="#a"/><text y="1.67" class="g">$</text><text x="2.004" y="1.67" class="g">sql</text><text x="6.012" y="1.67" class="g">diff</text><text x="11.022" y="1.67" class="g">sqlite://file1.db</text><text x="29.058" y="1.67" class="g">sqlite://file2.db</text><text y="3.841" class="h">table</text><text x="8.016" y="3.841" class="h">rows</text><text x="14.028" y="3.841" class="h">bytes</text><text x="21.042" y="3.841" class="h">columns</text><text x="56.112" y="3.841" class="h">indexes</text><text y="6.012" class="i">table_1</text><text x="8.016" y="6.012" class="i">2</text><text x="14.028" y="6.012" class="i">4.1</text><text x="18.036" y="6.012" class="i">kB</text><text x="21.042" y="6.012" class="i">5x</text><text x="24.048" y="6.012" class="i">deleted</text><text x="56.112" y="6.012" class="i">1x</text><text x="59.118" y="6.012" class="i">deleted</text><text y="8.183" class="g">table_2</text><text x="8.016" y="8.183" class="i">2</text><text x="10.02" y="8.183" class="g">→</text><text x="12.024" y="8.183" class="j">1</text><text x="14.028" y="8.183" class="g">4.1</text><text x="18.036" y="8.183" class="g">kB</text><text x="21.042" y="8.183" class="g">5x</text><text x="24.048" y="8.183" class="g">similar</text><text x="56.112" y="8.183" class="g">1x</text><text x="59.118" y="8.183" class="g">similar</text><text y="10.354" class="g">table_3</text><text x="8.016" y="10.354" class="g">0</text><text x="14.028" y="10.354" class="g">4.1</text><text x="18.036" y="10.354" class="g">kB</text><text x="21.042" y="10.354" class="i">1x</text><text x="24.048" y="10.354" class="i">deleted</text><text x="31.062" y="10.354" class="g">,</text><text x="33.066" y="10.354" class="j">2x</text><text x="36.072" y="10.354" class="j">created</text><text x="43.086" y="10.354" class="g">,</text><text x="45.09" y="10.354" class="g">3x</text><text x="48.096" y="10.354" class="g">similar</text><text x="56.112" y="10.354" class="g">none</text><text y="12.525" class="j">table_4</text><text x="8.016" y="12.525" class="j">0</text><text x="14.028" y="12.525" class="j">4.1</text><text x="18.036" y="12.525" class="j">kB</text><text x="21.042" y="12.525" class="j">1x</text><text x="24.048" y="12.525" class="j">created</text><text x="56.112" y="12.525" class="g">none</text><text y="16.867" class="g">Tables:</text><text x="8.016" y="16.867" class="i">1x</text><text x="11.022" y="16.867" class="i">deleted</text><text x="18.036" y="16.867" class="g">,</text><text x="20.04" y="16.867" class="j">1x</text><text x="23.046" y="16.867" class="j">created</text><text x="30.06" y="16.867" class="g">,</text><text x="32.064" y="16.867" class="k">2x</text><text x="35.07" y="16.867" class="k">changed</text><text y="21.209" class="g">$</text><text x="2.004" y="21.209" class="g">sql</text><text x="6.012" y="21.209" class="g">diff</text><text x="11.022" y="21.209" class="g">sqlite://file1.db/table_1</text><text x="37.074" y="21.209" class="g">sqlite://file2.db/table_2</text><text y="23.38" class="h">column</text><text x="8.016" y="23.38" class="h">type</text><text x="24.048" y="23.38" class="h">nullable</text><text x="37.074" y="23.38" class="h">default</text><text y="25.551" class="g">field_1</text><text x="8.016" y="25.551" class="i">integer</text><text x="16.032" y="25.551" class="g">→</text><text x="18.036" y="25.551" class="j">float</text><text x="24.048" y="25.551" class="i">true</text><text x="29.058" y="25.551" class="g">→</text><text x="31.062" y="25.551" class="j">false</text><text y="27.722" class="g">field_2</text><text x="8.016" y="27.722" class="g">text</text><text x="24.048" y="27.722" class="g">true</text><text x="37.074" y="27.722" class="i">[null]</text><text x="44.088" y="27.722" class="g">→</text><text x="46.092" y="27.722" class="j">&apos;default</text><text x="55.11" y="27.722" class="j">text&apos;</text><text y="32.064" class="h">index</text><text x="23.046" y="32.064" class="h">algorithm</text><text x="33.066" y="32.064" class="h">unique</text><text x="40.08" y="32.064" class="h">columns</text><text y="34.235" class="i">table_1_field_1_index</text><text x="23.046" y="34.235" class="i">unknown</text><text x="33.066" y="34.235" class="i">false</text><text x="40.08" y="34.235" class="i">field_1</text><text y="36.406" class="j">table_2_field_1_unique</text><text x="23.046" y="36.406" class="j">unknown</text><text x="33.066" y="36.406" class="j">true</text><text x="40.08" y="36.406" class="j">field_1</text><text y="40.748" class="g">Columns:</text><text x="9.018" y="40.748" class="k">2x</text><text x="12.024" y="40.748" class="k">changed</text><text x="19.038" y="40.748" class="g">,</text><text x="21.042" y="40.748" class="g">3x</text><text x="24.048" y="40.748" class="g">similar</text><text x="32.064" y="40.748" class="g">(hidden)</text><text y="42.919" class="g">Indexes:</text><text x="9.018" y="42.919" class="i">1x</text><text x="12.024" y="42.919" class="i">deleted</text><text x="19.038" y="42.919" class="g">,</text><text x="21.042" y="42.919" class="j">1x</text><text x="24.048" y="42.919" class="j">created</text><text y="45.09" class="l">Re-run</text><text x="7.014" y="45.09" class="l">with</text><text x="12.024" y="45.09" class="l">--all</text><text x="18.036" y="45.09" class="l">to</text><text x="21.042" y="45.09" class="l">show</text><text x="26.052" y="45.09" class="l">hidden</text><text x="33.066" y="45.09" class="l">rows</text><text y="49.432" class="g">$</text><text x="2.004" y="49.432" class="g">sql</text><text x="6.012" y="49.432" class="g">diff</text><text x="11.022" y="49.432" class="g">sqlite://file1.db/table_1</text><text x="37.074" y="49.432" class="g">sqlite://file2.db/table_2</text><text x="63.126" y="49.432" class="g">--data</text><text x="70.14" y="49.432" class="g">--rows=20</text><text y="51.603" class="g">Diff</text><text x="5.01" y="51.603" class="g">of</text><text x="8.016" y="51.603" class="g">tables</text><text x="15.03" y="51.603" class="g">content</text><text x="23.046" y="51.603" class="g">(first</text><text x="30.06" y="51.603" class="g">20</text><text x="33.066" y="51.603" class="g">rows):</text><text y="55.945" class="h">id</text><text x="3.006" y="55.945" class="h">field_1</text><text x="13.026" y="55.945" class="h">updated_at</text><text y="58.116" class="g">1</text><text x="3.006" y="58.116" class="i">12</text><text x="6.012" y="58.116" class="g">→</text><text x="8.016" y="58.116" class="j">12.3</text><text x="13.026" y="58.116" class="i">[null]</text><text x="20.04" y="58.116" class="g">→</text><text x="22.044" y="58.116" class="j">2020-07-24</text><text x="33.066" y="58.116" class="j">18:34:00</text><text y="60.287" class="i">2</text><text x="3.006" y="60.287" class="i">30</text><text x="13.026" y="60.287" class="i">2020-07-24</text><text x="24.048" y="60.287" class="i">18:34:00</text><text y="62.458" class="l">Re-run</text><text x="7.014" y="62.458" class="l">with</text><text x="12.024" y="62.458" class="l">--all</text><text x="18.036" y="62.458" class="l">to</text><text x="21.042" y="62.458" class="l">show</text><text x="26.052" y="62.458" class="l">rows</text><text x="31.062" y="62.458" class="l">without</text><text x="39.078" y="62.458" class="l">changes</text></svg></svg></g></svg></svg>