<svg xmlns="http://www.w3.org/2000/svg" xmlns:xlink="http://www.w3.org/1999/xlink" width="840" height="624.46"><rect width="840" height="624.46" rx="5" ry="5" class="a"/><svg y="0%" x="0%"><circle cx="20" cy="20" r="6" fill="#ff5f58"/><circle cx="40" cy="20" r="6" fill="#ffbd2e"/><circle cx="60" cy="20" r="6" fill="#18c132"/></svg><svg height="564.46" viewBox="0 0 80 56.446" width="800" x="15" xmlns="http://www.w3.org/2000/svg" xmlns:xlink="http://www.w3.org/1999/xlink" y="50"><style>.a{fill:#282d35}.g{fill:#b9c0cb}.g,.h,.i{white-space:pre}.h{fill:#b9c0cb;text-decoration:underline}.i{fill:#6f7783}</style><g font-family="Monaco,Consolas,Menlo,'Bitstream Vera Sans Mono','Powerline Symbols',monospace" font-size="1.67"><defs><symbol id="a"><path fill="transparent" d="M0 0h80v27H0z"/></symbol></defs><path class="a" d="M0 0h80v56.446H0z"/><svg width="80"><svg><use xlink:href="#a"/><text y="1.67" class="g">$</text><text x="2.004" y="1.67" class="g">sql</text><text x="6.012" y="1.67" class="g">ls</text><text x="9.018" y="1.67" class="g">dump-mydb.tgz</text><text y="3.841" class="h">table</text><text x="26.052" y="3.841" class="h">rows</text><text x="31.062" y="3.841" class="h">bytes</text><text y="6.012" class="g">migrations_dump_mydb</text><text x="26.052" y="6.012" class="g">3</text><text x="31.062" y="6.012" class="g">4.1</text><text x="35.07" y="6.012" class="g">kB</text><text y="8.183" class="i">migrations_dump_mydb_lock</text><text x="26.052" y="8.183" class="i">1</text><text x="31.062" y="8.183" class="i">4.1</text><text x="35.07" y="8.183" class="i">kB</text><text y="10.354" class="g">table_1</text><text x="26.052" y="10.354" class="g">2</text><text x="31.062" y="10.354" class="g">4.1</text><text x="35.07" y="10.354" class="g">kB</text><text y="12.525" class="i">table_2</text><text x="26.052" y="12.525" class="i">2</text><text x="31.062" y="12.525" class="i">4.1</text><text x="35.07" y="12.525" class="i">kB</text><text y="14.696" class="g">table_3</text><text x="26.052" y="14.696" class="g">0</text><text x="31.062" y="14.696" class="g">4.1</text><text x="35.07" y="14.696" class="g">kB</text><text y="19.038" class="i">(20.5</text><text x="6.012" y="19.038" class="i">kB</text><text x="9.018" y="19.038" class="i">in</text><text x="12.024" y="19.038" class="i">5</text><text x="14.028" y="19.038" class="i">tables)</text><text y="23.38" class="g">$</text><text x="2.004" y="23.38" class="g">sql</text><text x="6.012" y="23.38" class="g">show</text><text x="11.022" y="23.38" class="g">dump-mydb.tgz/table_1</text><text y="25.551" class="h">column</text><text x="11.022" y="25.551" class="h">type</text><text x="23.046" y="25.551" class="h">nullable</text><text x="32.064" y="25.551" class="h">default</text><text y="27.722" class="g">id</text><text x="11.022" y="27.722" class="g">integer</text><text x="23.046" y="27.722" class="g">false</text><text y="29.893" class="i">field_1</text><text x="11.022" y="29.893" class="i">integer</text><text x="23.046" y="29.893" class="i">true</text><text y="32.064" class="g">field_2</text><text x="11.022" y="32.064" class="g">varchar(50)</text><text x="23.046" y="32.064" class="g">true</text><text y="34.235" class="i">created_at</text><text x="11.022" y="34.235" class="i">datetime</text><text x="23.046" y="34.235" class="i">true</text><text y="36.406" class="g">updated_at</text><text x="11.022" y="36.406" class="g">datetime</text><text x="23.046" y="36.406" class="g">true</text><text y="40.748" class="h">index</text><text x="22.044" y="40.748" class="h">algorithm</text><text x="32.064" y="40.748" class="h">unique</text><text x="39.078" y="40.748" class="h">columns</text><text y="42.919" class="g">table_1_field_1_index</text><text x="22.044" y="42.919" class="g">unknown</text><text x="32.064" y="42.919" class="g">false</text><text x="39.078" y="42.919" class="g">field_1</text><text y="47.261" class="g">$</text><text x="2.004" y="47.261" class="g">sql</text><text x="6.012" y="47.261" class="g">shell</text><text x="12.024" y="47.261" class="g">dump-mydb.tgz</text><text x="26.052" y="47.261" class="g">&quot;select</text><text x="34.068" y="47.261" class="g">*</text><text x="36.072" y="47.261" class="g">from</text><text x="41.082" y="47.261" class="g">table_1;&quot;</text><text y="49.432" class="h">id</text><text x="3.006" y="49.432" class="h">field_1</text><text x="11.022" y="49.432" class="h">field_2</text><text x="19.038" y="49.432" class="h">created_at</text><text x="33.066" y="49.432" class="h">updated_at</text><text y="51.603" class="g">1</text><text x="3.006" y="51.603" class="g">12</text><text x="11.022" y="51.603" class="g">foo</text><text x="19.038" y="51.603" class="g">1595615640000</text><text y="53.774" class="i">2</text><text x="3.006" y="53.774" class="i">30</text><text x="11.022" y="53.774" class="i">bar</text><text x="19.038" y="53.774" class="i">1595615640000</text><text x="33.066" y="53.774" class="i">1595615640000</text></svg></svg></g></svg></svg>