<svg xmlns="http://www.w3.org/2000/svg" xmlns:xlink="http://www.w3.org/1999/xlink" width="840" height="581.04"><rect width="840" height="581.04" rx="5" ry="5" class="a"/><svg y="0%" x="0%"><circle cx="20" cy="20" r="6" fill="#ff5f58"/><circle cx="40" cy="20" r="6" fill="#ffbd2e"/><circle cx="60" cy="20" r="6" fill="#18c132"/></svg><svg height="521.04" viewBox="0 0 80 52.104" width="800" x="15" xmlns="http://www.w3.org/2000/svg" xmlns:xlink="http://www.w3.org/1999/xlink" y="50"><style>.a{fill:#282d35}.g{fill:#b9c0cb}.g,.h,.i,.j{white-space:pre}.h{fill:#b9c0cb;text-decoration:underline}.i,.j{fill:#6f7783}.j{fill:#a8cc8c}</style><g font-family="Monaco,Consolas,Menlo,'Bitstream Vera Sans Mono','Powerline Symbols',monospace" font-size="1.67"><defs><symbol id="a"><path fill="transparent" d="M0 0h80v24H0z"/></symbol></defs><path class="a" d="M0 0h80v52.104H0z"/><svg width="80"><svg><use xlink:href="#a"/><text y="1.67" class="g">$</text><text x="2.004" y="1.67" class="g">sql</text><text x="6.012" y="1.67" class="g">dump</text><text x="11.022" y="1.67" class="g">create</text><text x="18.036" y="1.67" class="g">sqlite://file1.db</text><text x="36.072" y="1.67" class="g">dump-my-file1</text><text y="3.841" class="g">Created</text><text x="8.016" y="3.841" class="g">migrations/20200927201931-table_1.js</text><text y="6.012" class="g">Created</text><text x="8.016" y="6.012" class="g">data/table_1.jsonl</text><text y="8.183" class="g">Created</text><text x="8.016" y="8.183" class="g">migrations/20200927201931-table_2.js</text><text y="10.354" class="g">Created</text><text x="8.016" y="10.354" class="g">data/table_2.jsonl</text><text y="12.525" class="g">Created</text><text x="8.016" y="12.525" class="g">migrations/20200927201931-table_3.js</text><text y="14.696" class="g">/Users/diego/code/sql-cli/.tmp/dump-my-file1.tgz</text><text y="19.038" class="g">$</text><text x="2.004" y="19.038" class="g">sql</text><text x="6.012" y="19.038" class="g">dump</text><text x="11.022" y="19.038" class="g">load</text><text x="16.032" y="19.038" class="g">sqlite://newfile.db</text><text x="36.072" y="19.038" class="g">dump-my-file1.tgz</text><text y="21.209" class="g">Saving</text><text x="7.014" y="21.209" class="g">migrations</text><text x="18.036" y="21.209" class="g">to</text><text x="21.042" y="21.209" class="g">table</text><text x="27.054" y="21.209" class="g">migrations_dump_my_file_1</text><text x="53.106" y="21.209" class="g">...</text><text y="23.38" class="g">Loading</text><text x="8.016" y="23.38" class="g">data</text><text x="13.026" y="23.38" class="g">to</text><text x="16.032" y="23.38" class="g">table_1</text><text x="24.048" y="23.38" class="g">...</text><text y="25.551" class="g">Loading</text><text x="8.016" y="25.551" class="g">data</text><text x="13.026" y="25.551" class="g">to</text><text x="16.032" y="25.551" class="g">table_2</text><text x="24.048" y="25.551" class="g">...</text><text y="29.893" class="g">$</text><text x="2.004" y="29.893" class="g">sql</text><text x="6.012" y="29.893" class="g">diff</text><text x="11.022" y="29.893" class="g">sqlite://file1.db</text><text x="29.058" y="29.893" class="g">sqlite://newfile.db</text><text x="49.098" y="29.893" class="g">--all</text><text y="32.064" class="h">table</text><text x="31.062" y="32.064" class="h">rows</text><text x="36.072" y="32.064" class="h">bytes</text><text x="43.086" y="32.064" class="h">columns</text><text x="54.108" y="32.064" class="h">indexes</text><text y="34.235" class="g">table_1</text><text x="31.062" y="34.235" class="g">2</text><text x="36.072" y="34.235" class="g">4.1</text><text x="40.08" y="34.235" class="g">kB</text><text x="43.086" y="34.235" class="g">5x</text><text x="46.092" y="34.235" class="g">similar</text><text x="54.108" y="34.235" class="g">1x</text><text x="57.114" y="34.235" class="g">similar</text><text y="36.406" class="i">table_2</text><text x="31.062" y="36.406" class="i">2</text><text x="36.072" y="36.406" class="i">4.1</text><text x="40.08" y="36.406" class="i">kB</text><text x="43.086" y="36.406" class="i">5x</text><text x="46.092" y="36.406" class="i">similar</text><text x="54.108" y="36.406" class="i">1x</text><text x="57.114" y="36.406" class="i">similar</text><text y="38.577" class="g">table_3</text><text x="31.062" y="38.577" class="g">0</text><text x="36.072" y="38.577" class="g">4.1</text><text x="40.08" y="38.577" class="g">kB</text><text x="43.086" y="38.577" class="g">4x</text><text x="46.092" y="38.577" class="g">similar</text><text x="54.108" y="38.577" class="g">none</text><text y="40.748" class="j">migrations_dump_my_file_1</text><text x="31.062" y="40.748" class="j">3</text><text x="36.072" y="40.748" class="j">4.1</text><text x="40.08" y="40.748" class="j">kB</text><text x="43.086" y="40.748" class="j">4x</text><text x="46.092" y="40.748" class="j">created</text><text x="54.108" y="40.748" class="i">none</text><text y="42.919" class="j">migrations_dump_my_file_1_lock</text><text x="31.062" y="42.919" class="j">1</text><text x="36.072" y="42.919" class="j">4.1</text><text x="40.08" y="42.919" class="j">kB</text><text x="43.086" y="42.919" class="j">2x</text><text x="46.092" y="42.919" class="j">created</text><text x="54.108" y="42.919" class="g">none</text><text y="47.261" class="g">Tables:</text><text x="8.016" y="47.261" class="j">2x</text><text x="11.022" y="47.261" class="j">created</text><text x="18.036" y="47.261" class="g">,</text><text x="20.04" y="47.261" class="g">3x</text><text x="23.046" y="47.261" class="g">similar</text></svg></svg></g></svg></svg>