<svg xmlns="http://www.w3.org/2000/svg" xmlns:xlink="http://www.w3.org/1999/xlink" width="840" height="581.04"><rect width="840" height="581.04" rx="5" ry="5" class="a"/><svg y="0%" x="0%"><circle cx="20" cy="20" r="6" fill="#ff5f58"/><circle cx="40" cy="20" r="6" fill="#ffbd2e"/><circle cx="60" cy="20" r="6" fill="#18c132"/></svg><svg height="521.04" viewBox="0 0 80 52.104" width="800" x="15" xmlns="http://www.w3.org/2000/svg" xmlns:xlink="http://www.w3.org/1999/xlink" y="50"><style>.a{fill:#282d35}.g{fill:#b9c0cb}.g,.h,.i{white-space:pre}.h{fill:#b9c0cb;text-decoration:underline}.i{fill:#a8cc8c}</style><g font-family="Monaco,Consolas,Menlo,'Bitstream Vera Sans Mono','Powerline Symbols',monospace" font-size="1.67"><defs><symbol id="a"><path fill="transparent" d="M0 0h80v24H0z"/></symbol></defs><path class="a" d="M0 0h80v52.104H0z"/><svg width="80"><svg><use xlink:href="#a"/><text y="1.67" class="g">$</text><text x="2.004" y="1.67" class="g">sql</text><text x="6.012" y="1.67" class="g">dump</text><text x="11.022" y="1.67" class="g">create</text><text x="18.036" y="1.67" class="g">test-1</text><text x="25.05" y="1.67" class="g">dump-mydb</text><text y="3.841" class="g">Created</text><text x="8.016" y="3.841" class="g">migrations/20201007163605-table_1.js</text><text y="6.012" class="g">Created</text><text x="8.016" y="6.012" class="g">data/table_1.jsonl</text><text y="8.183" class="g">Created</text><text x="8.016" y="8.183" class="g">migrations/20201007163605-table_2.js</text><text y="10.354" class="g">Created</text><text x="8.016" y="10.354" class="g">data/table_2.jsonl</text><text y="12.525" class="g">Created</text><text x="8.016" y="12.525" class="g">migrations/20201007163605-table_3.js</text><text y="14.696" class="g">/Users/diego/code/sql-cli/.tmp/dump-mydb.tgz</text><text y="19.038" class="g">$</text><text x="2.004" y="19.038" class="g">sql</text><text x="6.012" y="19.038" class="g">dump</text><text x="11.022" y="19.038" class="g">load</text><text x="16.032" y="19.038" class="g">mysql://root:Secret123@127.0.0.1:23306/loaded_db</text><text x="65.13" y="19.038" class="g">dump-mydb.tgz</text><text y="21.209" class="g">Saving</text><text x="7.014" y="21.209" class="g">migrations</text><text x="18.036" y="21.209" class="g">to</text><text x="21.042" y="21.209" class="g">table</text><text x="27.054" y="21.209" class="g">migrations_dump_mydb</text><text x="48.096" y="21.209" class="g">...</text><text y="23.38" class="g">Loading</text><text x="8.016" y="23.38" class="g">data</text><text x="13.026" y="23.38" class="g">to</text><text x="16.032" y="23.38" class="g">table_1</text><text x="24.048" y="23.38" class="g">...</text><text y="25.551" class="g">Loading</text><text x="8.016" y="25.551" class="g">data</text><text x="13.026" y="25.551" class="g">to</text><text x="16.032" y="25.551" class="g">table_2</text><text x="24.048" y="25.551" class="g">...</text><text y="29.893" class="g">$</text><text x="2.004" y="29.893" class="g">sql</text><text x="6.012" y="29.893" class="g">diff</text><text x="11.022" y="29.893" class="g">test-1</text><text x="18.036" y="29.893" class="g">mysql://root:Secret123@127.0.0.1:23306/loaded_db</text><text x="67.134" y="29.893" class="g">--all</text><text y="32.064" class="h">table</text><text x="26.052" y="32.064" class="h">rows</text><text x="31.062" y="32.064" class="h">bytes</text><text x="39.078" y="32.064" class="h">columns</text><text x="50.1" y="32.064" class="h">indexes</text><text y="34.235" class="g">table_1</text><text x="26.052" y="34.235" class="g">2</text><text x="31.062" y="34.235" class="g">32.8</text><text x="36.072" y="34.235" class="g">kB</text><text x="39.078" y="34.235" class="g">5x</text><text x="42.084" y="34.235" class="g">similar</text><text x="50.1" y="34.235" class="g">2x</text><text x="53.106" y="34.235" class="g">similar</text><text y="36.406" class="g">table_2</text><text x="26.052" y="36.406" class="g">2</text><text x="31.062" y="36.406" class="g">32.8</text><text x="36.072" y="36.406" class="g">kB</text><text x="39.078" y="36.406" class="g">5x</text><text x="42.084" y="36.406" class="g">similar</text><text x="50.1" y="36.406" class="g">2x</text><text x="53.106" y="36.406" class="g">similar</text><text y="38.577" class="g">table_3</text><text x="26.052" y="38.577" class="g">0</text><text x="31.062" y="38.577" class="g">16.4</text><text x="36.072" y="38.577" class="g">kB</text><text x="39.078" y="38.577" class="g">4x</text><text x="42.084" y="38.577" class="g">similar</text><text x="50.1" y="38.577" class="g">1x</text><text x="53.106" y="38.577" class="g">similar</text><text y="40.748" class="i">migrations_dump_mydb</text><text x="26.052" y="40.748" class="i">0</text><text x="31.062" y="40.748" class="i">16.4</text><text x="36.072" y="40.748" class="i">kB</text><text x="39.078" y="40.748" class="i">4x</text><text x="42.084" y="40.748" class="i">created</text><text x="50.1" y="40.748" class="i">1x</text><text x="53.106" y="40.748" class="i">created</text><text y="42.919" class="i">migrations_dump_mydb_lock</text><text x="26.052" y="42.919" class="i">1</text><text x="31.062" y="42.919" class="i">16.4</text><text x="36.072" y="42.919" class="i">kB</text><text x="39.078" y="42.919" class="i">2x</text><text x="42.084" y="42.919" class="i">created</text><text x="50.1" y="42.919" class="i">1x</text><text x="53.106" y="42.919" class="i">created</text><text y="47.261" class="g">Tables:</text><text x="8.016" y="47.261" class="i">2x</text><text x="11.022" y="47.261" class="i">created</text><text x="18.036" y="47.261" class="g">,</text><text x="20.04" y="47.261" class="g">3x</text><text x="23.046" y="47.261" class="g">similar</text></svg></svg></g></svg></svg>