<svg xmlns="http://www.w3.org/2000/svg" xmlns:xlink="http://www.w3.org/1999/xlink" width="840" height="494.2"><rect width="840" height="494.2" rx="5" ry="5" class="a"/><svg y="0%" x="0%"><circle cx="20" cy="20" r="6" fill="#ff5f58"/><circle cx="40" cy="20" r="6" fill="#ffbd2e"/><circle cx="60" cy="20" r="6" fill="#18c132"/></svg><svg height="434.2" viewBox="0 0 80 43.42" width="800" x="15" xmlns="http://www.w3.org/2000/svg" xmlns:xlink="http://www.w3.org/1999/xlink" y="50"><style>.a{fill:#282d35}.g{fill:#b9c0cb}.g,.h,.i{white-space:pre}.h{fill:#b9c0cb;text-decoration:underline}.i{fill:#6f7783}</style><g font-family="Monaco,Consolas,Menlo,'Bitstream Vera Sans Mono','Powerline Symbols',monospace" font-size="1.67"><defs><symbol id="a"><path fill="transparent" d="M0 0h80v21H0z"/></symbol></defs><path class="a" d="M0 0h80v43.42H0z"/><svg width="80"><svg><use xlink:href="#a"/><text y="1.67" class="g">$</text><text x="2.004" y="1.67" class="g">sql</text><text x="6.012" y="1.67" class="g">list</text><text x="11.022" y="1.67" class="g">mysql://root:Secret123@127.0.0.1:23306/test1_db</text><text y="3.841" class="h">table</text><text x="8.016" y="3.841" class="h">rows</text><text x="13.026" y="3.841" class="h">bytes</text><text y="6.012" class="g">table_1</text><text x="8.016" y="6.012" class="g">2</text><text x="13.026" y="6.012" class="g">32.8</text><text x="18.036" y="6.012" class="g">kB</text><text y="8.183" class="i">table_2</text><text x="8.016" y="8.183" class="i">2</text><text x="13.026" y="8.183" class="i">32.8</text><text x="18.036" y="8.183" class="i">kB</text><text y="10.354" class="g">table_3</text><text x="8.016" y="10.354" class="g">0</text><text x="13.026" y="10.354" class="g">16.4</text><text x="18.036" y="10.354" class="g">kB</text><text y="14.696" class="i">(81.9</text><text x="6.012" y="14.696" class="i">kB</text><text x="9.018" y="14.696" class="i">in</text><text x="12.024" y="14.696" class="i">3</text><text x="14.028" y="14.696" class="i">tables)</text><text y="19.038" class="g">$</text><text x="2.004" y="19.038" class="g">sql</text><text x="6.012" y="19.038" class="g">show</text><text x="11.022" y="19.038" class="g">mysql://root:Secret123@127.0.0.1:23306/test1_db/table_1</text><text y="21.209" class="h">column</text><text x="11.022" y="21.209" class="h">type</text><text x="23.046" y="21.209" class="h">nullable</text><text x="32.064" y="21.209" class="h">default</text><text y="23.38" class="g">id</text><text x="11.022" y="23.38" class="g">int</text><text x="23.046" y="23.38" class="g">false</text><text y="25.551" class="i">field_1</text><text x="11.022" y="25.551" class="i">int</text><text x="23.046" y="25.551" class="i">true</text><text y="27.722" class="g">field_2</text><text x="11.022" y="27.722" class="g">text(65535)</text><text x="23.046" y="27.722" class="g">true</text><text y="29.893" class="i">created_at</text><text x="11.022" y="29.893" class="i">datetime</text><text x="23.046" y="29.893" class="i">true</text><text y="32.064" class="g">updated_at</text><text x="11.022" y="32.064" class="g">datetime</text><text x="23.046" y="32.064" class="g">true</text><text y="36.406" class="h">index</text><text x="22.044" y="36.406" class="h">algorithm</text><text x="32.064" y="36.406" class="h">unique</text><text x="39.078" y="36.406" class="h">columns</text><text y="38.577" class="g">PRIMARY</text><text x="22.044" y="38.577" class="g">BTREE</text><text x="32.064" y="38.577" class="g">true</text><text x="39.078" y="38.577" class="g">id</text><text y="40.748" class="i">table_1_field_1_index</text><text x="22.044" y="40.748" class="i">BTREE</text><text x="32.064" y="40.748" class="i">false</text><text x="39.078" y="40.748" class="i">field_1</text></svg></svg></g></svg></svg>